<?xml version="1.0" encoding="UTF-8"?>
<svg id="katman_1" data-name="katman 1" xmlns="http://www.w3.org/2000/svg" viewBox="0 0 340.16 340.16">
  <defs>
    <style>
      .cls-1 {
        fill: #da171b;
      }

      .cls-2 {
        fill: #272d3d;
      }
    </style>
  </defs>
  <path class="cls-2" d="M319.36,117.7v104.69c0,38.22-27.18,69.28-60.6,69.28H81.45c-25.47,0-48.3-18.34-57.01-45.67l42.24-44.33v20.45c0,7.8,6.88,14.96,14.47,14.96h177.32c7.53,0,14.41-7.17,14.41-14.96v-104.69c0-8.08-6.47-14.68-14.41-14.68h-97.6l51.65-54.24h46.24c33.42,0,60.6,31.05,60.6,69.2Z"/>
  <path class="cls-1" d="M192.05,48.5l-51.65,54.24h-59.24c-8,0-14.47,6.6-14.47,14.68v62.74l-45.59,47.92-.18-2.67c-.06-1.05-.12-2.04-.12-3.02v-104.69c0-38.15,27.18-69.2,60.66-69.2h110.6Z"/>
</svg>