<?xml version="1.0" encoding="UTF-8"?>
<svg id="katman_1" data-name="katman 1" xmlns="http://www.w3.org/2000/svg" viewBox="0 0 2131.15 267.19">
  <defs>
    <style>
      .cls-1 {
        fill: #da171b;
      }

      .cls-2 {
        fill: #66c1ee;
      }

      .cls-3 {
        fill: #272d3d;
      }
    </style>
  </defs>
  <path class="cls-3" d="M2056.39,158.47c3.82-.91,7.59-2.18,11.12-3.86,7.53-3.51,14.18-8.43,19.83-14.54,5.77-6.18,10.35-13.56,13.71-21.92,3.41-8.57,5.18-17.78,5.18-27.4v-9.56c0-9.7-1.77-18.9-5.18-27.4-3.35-8.36-7.94-15.74-13.65-21.92-5.71-6.11-12.36-11.03-19.89-14.61-7.53-3.51-15.71-5.34-24.3-5.34h-210.32v243.38h44.77v-95.34h121.78l67.24,95.34h57.71l-68.01-96.82ZM2043.21,107.88h-165.55v-43.91h165.55c2.71,0,5.18.49,7.47,1.55,2.29.98,4.35,2.32,6,4,1.47,1.48,2.65,3.3,3.53,5.41.82,2.04,1.24,4.07,1.24,6.25v9.56c0,2.11-.41,4.15-1.24,6.18-.88,2.18-2.06,3.93-3.59,5.41-1.59,1.69-3.59,3.02-5.94,4.08-2.3.98-4.77,1.48-7.47,1.48Z"/>
  <polygon class="cls-3" points="356.91 66.12 536.51 66.12 358.29 199.07 356.91 200.09 356.91 255.34 648.68 255.34 648.68 201.11 441.41 201.11 648.68 46.68 648.68 11.89 356.91 11.89 356.91 66.12"/>
  <path class="cls-3" d="M991.77,86.17c-5.29-14.68-12.59-27.75-21.83-38.71-9.18-10.96-20.06-19.74-32.42-26.07-12.41-6.32-25.77-9.49-39.71-9.49h-197.56v243.45h197.56c13.94,0,27.3-3.23,39.71-9.56,12.3-6.25,23.24-15.04,32.42-26,9.24-10.96,16.53-24.03,21.83-38.78,5.29-14.75,7.94-30.7,7.94-47.42s-2.65-32.6-7.94-47.42ZM949.88,159.8c-2.94,8.15-7.06,15.32-12.18,21.43-5.12,6.18-11.18,11.03-18,14.61-6.71,3.51-14.06,5.27-21.89,5.27h-152.14V66.15h152.14c7.82,0,15.18,1.76,21.94,5.27,6.77,3.51,12.83,8.43,17.94,14.54,5.12,6.11,9.24,13.35,12.18,21.5,2.94,8.01,4.41,16.79,4.41,26.14s-1.47,18.2-4.41,26.21Z"/>
  <polygon class="cls-3" points="1051.3 255.34 1333.09 255.34 1333.09 201.11 1096.71 201.11 1096.71 160.9 1333.09 160.9 1333.09 106.33 1096.71 106.33 1096.71 66.12 1333.09 66.12 1333.09 11.89 1051.3 11.89 1051.3 255.34"/>
  <polygon class="cls-3" points="1534.26 164.07 1417.19 11.89 1384.66 11.89 1384.66 255.34 1430.08 255.34 1430.08 108.83 1534.26 244.3 1638.46 108.83 1638.46 255.34 1684.15 255.34 1684.15 11.89 1651.33 11.89 1534.26 164.07"/>
  <g>
    <path class="cls-3" d="M305.32,81.25v104.69c0,38.22-27.18,69.28-60.6,69.28H67.41c-25.47,0-48.3-18.34-57.01-45.67l42.24-44.33v20.45c0,7.8,6.88,14.96,14.47,14.96h177.32c7.53,0,14.41-7.17,14.41-14.96v-104.69c0-8.08-6.47-14.68-14.41-14.68h-97.6l51.65-54.24h46.24c33.42,0,60.6,31.05,60.6,69.2Z"/>
    <path class="cls-1" d="M178.01,12.05l-51.65,54.24h-59.24c-8,0-14.47,6.6-14.47,14.68v62.74L7.05,191.63l-.18-2.67c-.06-1.05-.12-2.04-.12-3.02v-104.69C6.75,43.1,33.93,12.05,67.41,12.05h110.6Z"/>
  </g>
  <g>
    <polygon class="cls-1" points="1781.35 11.84 1781.11 51.11 1781.11 51.18 1735.7 98.89 1735.7 98.82 1735.87 11.84 1781.35 11.84"/>
    <polygon class="cls-3" points="1781.29 72.47 1781.29 255.35 1735.87 255.35 1735.87 120.11 1781.29 72.47"/>
    <polygon class="cls-2" points="1781.11 51.18 1735.7 98.89 1735.7 98.82 1781.11 51.18"/>
  </g>
</svg>